<svg width="24" height="24" viewBox="0 0 24 24" fill="none" xmlns="http://www.w3.org/2000/svg">
<path d="M12.565 6.39844H11.4376C11.3345 6.39844 11.2501 6.48281 11.2501 6.58594V13.0383C11.2501 13.0992 11.2783 13.1555 11.3275 13.1906L15.2017 16.0195C15.2861 16.0805 15.4033 16.0641 15.4642 15.9797L16.1345 15.0656C16.1978 14.9789 16.1791 14.8617 16.0947 14.8031L12.7525 12.3867V6.58594C12.7525 6.48281 12.6681 6.39844 12.565 6.39844ZM17.7166 8.16094L21.3916 9.0586C21.5087 9.08672 21.6236 8.99766 21.6236 8.87813L21.6423 5.09297C21.6423 4.93594 21.4619 4.84688 21.34 4.94532L17.6462 7.83047C17.6183 7.85207 17.5971 7.8811 17.5849 7.91424C17.5728 7.94738 17.5702 7.98327 17.5776 8.0178C17.5849 8.05232 17.6019 8.08407 17.6264 8.10939C17.651 8.13471 17.6823 8.15258 17.7166 8.16094ZM21.647 15.218L20.3181 14.7609C20.2718 14.7451 20.2211 14.7479 20.1768 14.769C20.1326 14.79 20.0983 14.8275 20.0814 14.8734C20.0369 14.993 19.99 15.1102 19.9408 15.2273C19.5236 16.2141 18.9259 17.1023 18.1619 17.8641C17.4063 18.622 16.5108 19.2261 15.5251 19.643C14.504 20.0747 13.4064 20.2963 12.2978 20.2945C11.1775 20.2945 10.0923 20.0766 9.07046 19.643C8.08477 19.2261 7.18932 18.622 6.43374 17.8641C5.67202 17.1023 5.07436 16.2141 4.65483 15.2273C4.22549 14.2057 4.00553 13.1082 4.00796 12C4.00796 10.8797 4.22592 9.79219 4.65952 8.77032C5.07671 7.7836 5.67436 6.89532 6.43843 6.1336C7.194 5.37567 8.08945 4.77154 9.07514 4.35469C10.0923 3.9211 11.1798 3.70313 12.3001 3.70313C13.4205 3.70313 14.5056 3.9211 15.5275 4.35469C16.5132 4.77154 17.4086 5.37567 18.1642 6.1336C18.4033 6.375 18.6283 6.62578 18.8345 6.89063L20.2361 5.79375C18.3916 3.43594 15.5205 1.91953 12.2955 1.92188C6.67983 1.92422 2.17046 6.48516 2.22671 12.1031C2.28296 17.6227 6.77124 22.0781 12.3001 22.0781C16.6478 22.0781 20.3509 19.3219 21.7619 15.4617C21.797 15.3633 21.7455 15.2531 21.647 15.218Z" fill="#535353"/>
</svg>
