<svg width="126" height="124" viewBox="0 0 126 124" fill="none" xmlns="http://www.w3.org/2000/svg">
<circle cx="64.5" cy="57.5" r="57.5" fill="#FFC89D"/>
<ellipse cx="63" cy="119.5" rx="63" ry="4.5" fill="#FC974F"/>
<ellipse cx="59.5" cy="118.5" rx="49.5" ry="2.5" fill="#BB4F00"/>
<path d="M88.8509 60.9438C88.8509 71.457 77.6649 79.9797 63.8664 79.9797C50.0678 79.9797 38.8818 71.457 38.8818 60.9438C38.8818 50.4306 50.0678 41.908 63.8664 41.908C77.6649 41.908 88.8509 50.4306 88.8509 60.9438Z" fill="#F96C00"/>
<g filter="url(#filter0_i_741_356)">
<path d="M72.1943 48.1541C72.1943 51.6038 68.5988 54.4003 64.1635 54.4003C59.7283 54.4003 56.1328 51.6038 56.1328 48.1541C56.1328 44.7045 59.7283 41.908 64.1635 41.908C68.5988 41.908 72.1943 44.7045 72.1943 48.1541Z" fill="#F9C594"/>
</g>
<path d="M71.6943 48.1541C71.6943 51.218 68.4469 53.9003 64.1635 53.9003C59.8802 53.9003 56.6328 51.218 56.6328 48.1541C56.6328 45.0903 59.8802 42.408 64.1635 42.408C68.4469 42.408 71.6943 45.0903 71.6943 48.1541Z" stroke="#D3D3D3"/>
<path d="M85.2818 31.4978C85.2818 40.5326 75.6938 47.8567 63.8665 47.8567C52.0391 47.8567 42.4512 40.5326 42.4512 31.4978C42.4512 22.463 52.0391 15.1389 63.8665 15.1389C75.6938 15.1389 85.2818 22.463 85.2818 31.4978Z" fill="#FFD7B1"/>
<path d="M47.8051 42.2054C47.3292 41.4916 48.5983 34.373 49.2923 30.9029C48.5983 29.4158 47.3293 27.0958 47.8051 29.7132C48.281 32.3306 46.6154 37.7439 45.7231 40.1234C46.6154 41.1149 48.281 42.9193 47.8051 42.2054Z" fill="#FDB979"/>
<path d="M48.3999 15.1389C51.9693 10.3799 72.7897 11.5696 78.7382 15.1389C84.6867 18.7081 86.4717 20.1952 88.2561 30.6055C90.0406 41.0157 48.3999 30.6055 48.3999 30.6055C48.3999 30.6055 44.8305 19.8979 48.3999 15.1389Z" fill="black"/>
<path d="M39.8657 25.8465C39.6598 23.7645 41.1475 16.0312 45.5172 15.4363C49.8869 14.8415 46.3177 23.7645 48.3997 30.3081C48.3997 30.3081 47.5074 41.0157 45.517 40.1234C43.5266 39.2311 40.0716 27.9286 39.8657 25.8465Z" fill="black"/>
<path d="M61.5819 41.6106C61.5819 41.7942 61.4888 42.0228 61.2047 42.2855C60.9201 42.5488 60.4808 42.809 59.896 43.0378C58.7295 43.4943 57.0838 43.7875 55.2409 43.7875C53.398 43.7875 51.7524 43.4943 50.5858 43.0378C50.001 42.809 49.5617 42.5488 49.2771 42.2855C48.993 42.0228 48.8999 41.7942 48.8999 41.6106C48.8999 41.427 48.993 41.1984 49.2771 40.9356C49.5617 40.6723 50.001 40.4122 50.5858 40.1833C51.7524 39.7269 53.398 39.4337 55.2409 39.4337C57.0838 39.4337 58.7295 39.7269 59.896 40.1833C60.4808 40.4122 60.9201 40.6723 61.2047 40.9356C61.4888 41.1984 61.5819 41.427 61.5819 41.6106Z" stroke="black"/>
<path d="M78.2379 41.6106C78.2379 41.7942 78.1448 42.0228 77.8608 42.2855C77.5761 42.5488 77.1369 42.809 76.552 43.0378C75.3855 43.4943 73.7398 43.7875 71.8969 43.7875C70.054 43.7875 68.4084 43.4943 67.2418 43.0378C66.657 42.809 66.2177 42.5488 65.9331 42.2855C65.649 42.0228 65.5559 41.7942 65.5559 41.6106C65.5559 41.427 65.649 41.1984 65.9331 40.9356C66.2177 40.6723 66.657 40.4122 67.2418 40.1833C68.4084 39.7269 70.054 39.4337 71.8969 39.4337C73.7398 39.4337 75.3855 39.7269 76.552 40.1833C77.1369 40.4122 77.5761 40.6723 77.8608 40.9356C78.1448 41.1984 78.2379 41.427 78.2379 41.6106Z" stroke="black"/>
<line x1="62.082" y1="41.408" x2="65.6512" y2="41.408" stroke="black"/>
<line x1="48.6209" y1="41.6453" x2="43.862" y2="36.2915" stroke="black"/>
<line x1="77.7898" y1="40.9596" x2="86.1179" y2="32.6314" stroke="black"/>
<path d="M37.9752 79.5745L34.6607 53.0208H92.4972L89.6562 79.5745H37.9752Z" fill="black" stroke="black" stroke-width="2"/>
<rect x="9.7334" y="80.5745" width="108.861" height="5.94869" fill="#DB5C00"/>
<rect x="20.4412" y="86.5232" width="86.8509" height="32.7178" fill="#964205"/>
<path d="M25.7949 80.5745C25.7949 78.8009 27.5111 77.5334 29.2063 78.055L29.6616 78.195L30.5885 78.0525C32.1342 77.8146 33.5282 79.0106 33.5282 80.5745H25.7949Z" fill="black"/>
<line x1="29.6638" y1="78.7899" x2="29.6638" y2="80.5745" stroke="#8A8888" stroke-width="0.6"/>
<ellipse cx="29.6612" cy="78.7899" rx="0.297435" ry="0.594869" fill="#4B4B4B"/>
<path d="M96.3687 79.1951C96.3687 78.6428 96.8164 78.1951 97.3687 78.1951H103.102C103.654 78.1951 104.102 78.6428 104.102 79.1951V80.5745H96.3687V79.1951Z" fill="black"/>
<path d="M107.977 69.8643C107.933 69.5465 107.903 69.3239 107.895 69.15C107.886 68.9786 107.901 68.8804 107.93 68.8065C107.993 68.6462 108.11 68.5127 108.26 68.4284C108.329 68.3894 108.425 68.362 108.596 68.3474C108.769 68.3325 108.994 68.3323 109.314 68.3323H115.167C115.488 68.3323 115.713 68.3325 115.886 68.3474C116.057 68.362 116.153 68.3894 116.222 68.4284C116.372 68.5127 116.489 68.6462 116.552 68.8065C116.581 68.8804 116.596 68.9786 116.587 69.15C116.578 69.3239 116.548 69.5465 116.505 69.8643L115.241 79.1565C115.207 79.4056 115.183 79.5784 115.154 79.7126C115.126 79.8437 115.097 79.9192 115.06 79.9766C114.983 80.0987 114.872 80.1957 114.74 80.256C114.678 80.2844 114.6 80.3036 114.466 80.3138C114.329 80.3243 114.155 80.3245 113.903 80.3245H110.579C110.327 80.3245 110.153 80.3243 110.016 80.3138C109.882 80.3036 109.803 80.2844 109.742 80.256C109.61 80.1957 109.499 80.0987 109.422 79.9766C109.385 79.9192 109.356 79.8437 109.327 79.7126C109.299 79.5784 109.275 79.4056 109.241 79.1565L107.977 69.8643Z" fill="#FFE7D1" stroke="#AB590D" stroke-width="0.5"/>
<path d="M108.049 72.2464C111.362 71.8397 113.151 71.8411 116.433 72.2464L115.787 77.0053C113.039 76.7891 111.469 76.7886 108.692 77.0053L108.049 72.2464Z" fill="#9B5416"/>
<circle cx="112.24" cy="74.6258" r="1.78461" fill="white"/>
<g clip-path="url(#clip0_741_356)">
<path d="M111.546 73.6344H111.745V73.9318H111.546V73.6344ZM111.943 73.6344H112.141V73.9318H111.943V73.6344ZM112.34 73.6344H112.538V73.9318H112.34V73.6344ZM112.934 74.3284H112.736V74.2293C112.736 74.203 112.726 74.1777 112.707 74.1591C112.689 74.1406 112.663 74.1301 112.637 74.1301H111.447C111.421 74.1301 111.396 74.1406 111.377 74.1591C111.359 74.1777 111.348 74.203 111.348 74.2293V75.2207C111.348 75.2996 111.379 75.3752 111.435 75.431C111.491 75.4868 111.567 75.5181 111.646 75.5181H112.439C112.518 75.5181 112.593 75.4868 112.649 75.431C112.705 75.3752 112.736 75.2996 112.736 75.2207H112.934C113.044 75.2207 113.133 75.1318 113.133 75.0224V74.5267C113.133 74.4173 113.044 74.3284 112.934 74.3284ZM112.736 75.0224V74.5267H112.934L112.935 75.0224H112.736Z" fill="#9B5416"/>
</g>
<rect x="106.887" y="67.4874" width="10.7076" height="1.78461" rx="0.892304" fill="#8A460A"/>
<path d="M108.672 65.7028H115.81L117 67.4874H107.482L108.672 65.7028Z" fill="#954B0A"/>
<path d="M107.292 92.4719C87.5424 87.9509 41.1624 91.9762 20.4412 94.554V86.5232H107.292V92.4719Z" fill="#622900"/>
<defs>
<filter id="filter0_i_741_356" x="56.1328" y="41.908" width="16.0615" height="16.4923" filterUnits="userSpaceOnUse" color-interpolation-filters="sRGB">
<feFlood flood-opacity="0" result="BackgroundImageFix"/>
<feBlend mode="normal" in="SourceGraphic" in2="BackgroundImageFix" result="shape"/>
<feColorMatrix in="SourceAlpha" type="matrix" values="0 0 0 0 0 0 0 0 0 0 0 0 0 0 0 0 0 0 127 0" result="hardAlpha"/>
<feOffset dy="4"/>
<feGaussianBlur stdDeviation="2"/>
<feComposite in2="hardAlpha" operator="arithmetic" k2="-1" k3="1"/>
<feColorMatrix type="matrix" values="0 0 0 0 1 0 0 0 0 0.756863 0 0 0 0 0.529412 0 0 0 1 0"/>
<feBlend mode="normal" in2="shape" result="effect1_innerShadow_741_356"/>
</filter>
<clipPath id="clip0_741_356">
<rect width="2.37948" height="2.37948" fill="white" transform="translate(111.051 73.4361)"/>
</clipPath>
</defs>
</svg>
